<svg id="File_management" height="512" viewBox="0 0 64 64" width="512" xmlns="http://www.w3.org/2000/svg" data-name="File management"><path style="fill:#222222;" d="m61 23h-3v-13a1 1 0 0 0 -1-1h-6.84l-7.49-6.74a.971.971 0 0 0 -.67-.26h-28a1 1 0 0 0 -1 1v6h-6a1 1 0 0 0 -1 1v5h-3a1 1 0 0 0 -1 1v39a1 1 0 0 0 1 1h37.93l4.04 4.04a5.005 5.005 0 0 0 8.54-3.53 4.2 4.2 0 0 0 -.05-.51h7.54a1 1 0 0 0 1-1v-31a1 1 0 0 0 -1-1zm-5-12v12h-3v-11a1 1 0 0 0 -.33-.74l-.29-.26zm-13-5.75 6.39 5.75h-6.39zm-28-1.25h26v8a1 1 0 0 0 1 1h9v10h-12.07a17 17 0 0 0 -2.95-2h11.02a1 1 0 0 0 0-2h-19a16.976 16.976 0 0 0 -4.12.53l-1.98-3.98a1 1 0 0 0 -.9-.55h-6zm28 32a15 15 0 1 1 -15-15 15.018 15.018 0 0 1 15 15zm-35-25h5v4h-5zm-4 43v-37h16.38l1.56 3.13a16.99 16.99 0 1 0 14 30.89l2.99 2.98zm46.62 4.62a3.034 3.034 0 0 1 -4.23 0l-8.69-8.68a17.082 17.082 0 0 0 4.24-4.24l8.68 8.69a2.958 2.958 0 0 1 0 4.23zm9.38-4.62h-7.19a5.124 5.124 0 0 0 -.77-1.03l-9.02-9.02a16.939 16.939 0 0 0 -2.08-18.95h19.06z"/><path d="m18 7h5v2h-5z"/><path d="m26 7h11v2h-11z"/><path style="fill:#222222;" d="m24 11h13v2h-13z"/><path style="fill:#222222;" d="m27 15h21v2h-21z"/><path style="fill:#222222;" d="m28 23a13 13 0 1 0 13 13 13.015 13.015 0 0 0 -13-13zm0 24a11 11 0 1 1 11-11 11.013 11.013 0 0 1 -11 11z"/></svg>