<svg id="Capa_1" enable-background="new 0 0 512 512" height="512" viewBox="0 0 512 512" width="512" xmlns="http://www.w3.org/2000/svg"><g>
<path style="fill:#CC0000;" d="m476.957 13.904h-194.576c-19.323 0-35.043 15.729-35.043 35.063v58.84h-200.086c-26.055 0-47.252 21.21-47.252 47.281v266.879c0 26.071 21.197 47.281 47.252 47.281h99.153l27.126 26.06c1.935 1.859 4.431 2.789 6.928 2.789 2.496 0 4.993-.93 6.928-2.789l27.127-26.06h99.153c26.055 0 47.252-21.21 47.252-47.281v-194.403h52.315l29.389 20.603c1.702 1.193 3.71 1.812 5.741 1.812.99 0 1.985-.147 2.953-.446 2.953-.913 5.318-3.14 6.406-6.033l5.996-15.936h13.237c19.323 0 35.043-15.729 35.043-35.063v-143.534c.001-19.334-15.719-35.063-35.042-35.063zm-136.038 408.063c0 15.042-12.226 27.281-27.252 27.281h-103.178c-2.583 0-5.065 1-6.928 2.789l-23.102 22.193-23.101-22.193c-1.862-1.789-4.345-2.789-6.928-2.789h-103.178c-15.026 0-27.252-12.238-27.252-27.281v-266.879c0-15.043 12.225-27.281 27.252-27.281h266.415c15.027 0 27.252 12.238 27.252 27.281zm151.081-229.466c0 8.306-6.749 15.063-15.043 15.063h-20.16c-4.165 0-7.893 2.581-9.359 6.479l-3.892 10.345-21.414-15.012c-1.682-1.179-3.686-1.812-5.74-1.812h-55.472v-52.477c0-26.071-21.197-47.281-47.252-47.281h-46.329v-58.84c0-8.306 6.749-15.063 15.043-15.063h194.575c8.295 0 15.043 6.757 15.043 15.063z"/>
<path style="fill:#CC0000;" d="m180.459 160.842c-70.874 0-128.534 57.677-128.534 128.573 0 70.895 57.66 128.572 128.534 128.572s128.534-57.677 128.534-128.572c.001-70.895-57.66-128.573-128.534-128.573zm0 237.145c-59.846 0-108.534-48.705-108.534-108.572s48.688-108.573 108.534-108.573 108.534 48.706 108.534 108.573-48.688 108.572-108.534 108.572z"/>
<path style="fill:#CC0000;" d="m155.906 286.379c5.523 0 10-4.477 10-10v-21.485c0-5.523-4.477-10-10-10s-10 4.477-10 10v21.485c0 5.523 4.477 10 10 10z"/>
<path style="fill:#CC0000;" d="m207.647 286.379c5.523 0 10-4.477 10-10v-21.485c0-5.523-4.477-10-10-10s-10 4.477-10 10v21.485c0 5.523 4.478 10 10 10z"/>
<path style="fill:#CC0000;" d="m180.459 319c-17.367 0-33.694 6.765-45.975 19.049-3.905 3.906-3.903 10.237.002 14.142 3.906 3.905 10.238 3.904 14.142-.002 8.502-8.505 19.807-13.189 31.83-13.189 12.024 0 23.328 4.684 31.831 13.189 1.953 1.954 4.512 2.93 7.072 2.93 2.559 0 5.118-.976 7.07-2.928 3.906-3.905 3.907-10.236.002-14.142-12.279-12.284-28.606-19.049-45.974-19.049z"/></g></svg>